<svg xmlns="http://www.w3.org/2000/svg" fill="none" viewBox="0 0 900 300"><rect width="900" height="300" fill="#1a1613" rx="12"/><rect width="852" height="54" x="24" y="16" fill="#2a2520" stroke="#3d372e" stroke-width="1.5" rx="10"/><g><path stroke="#DA7756" stroke-linecap="round" stroke-width="2" d="M0 2h20M3 9h14M6 16h8" transform="translate(44, 32)"/></g><text x="76" y="48" fill="#ebe4d8" font-family="system-ui" font-size="12" font-weight="600">Filter by Model</text><g transform="translate(220, 28)"><rect width="100" height="30" x="0" y="0" fill="#1e3a2a" stroke="#3d372e" stroke-width="1.2" rx="8"/><circle cx="16" cy="15" r="5" fill="#4ade80"/><text x="30" y="19" fill="#ebe4d8" font-family="system-ui" font-size="11" font-weight="500">Haiku</text><rect width="20" height="16" x="72" y="7" fill="#3d372e" rx="8"/><text x="82" y="19" fill="#4ade80" font-family="system-ui" font-size="10" font-weight="600" text-anchor="middle">4</text></g><g transform="translate(336, 28)"><rect width="108" height="34" x="-2" y="-2" fill="none" stroke="#60a5fa" stroke-width="2" opacity=".8" rx="10"/><rect width="104" height="30" x="0" y="0" fill="#1e2a4f" stroke="#60a5fa" stroke-width="1.5" rx="8"/><circle cx="16" cy="15" r="5" fill="#60a5fa"/><text x="30" y="19" fill="#ebe4d8" font-family="system-ui" font-size="11" font-weight="600">Sonnet</text><rect width="20" height="16" x="76" y="7" fill="#1e3a5f" rx="8"/><text x="86" y="19" fill="#60a5fa" font-family="system-ui" font-size="10" font-weight="600" text-anchor="middle">8</text></g><g transform="translate(458, 28)"><rect width="96" height="30" x="0" y="0" fill="#2a1e4a" stroke="#3d372e" stroke-width="1.2" rx="8"/><circle cx="16" cy="15" r="5" fill="#c084fc"/><text x="30" y="19" fill="#ebe4d8" font-family="system-ui" font-size="11" font-weight="500">Opus</text><rect width="20" height="16" x="68" y="7" fill="#3d372e" rx="8"/><text x="78" y="19" fill="#c084fc" font-family="system-ui" font-size="10" font-weight="600" text-anchor="middle">2</text></g><text x="580" y="48" fill="#DA7756" font-family="system-ui" font-size="11" opacity=".8" text-decoration="underline">Clear filter</text><text x="790" y="48" fill="#736858" font-family="system-ui" font-size="11">Showing 8 of 14</text><rect width="268" height="116" x="24" y="86" fill="#2a2520" stroke="#3d372e" stroke-width="1.5" rx="10"/><rect width="268" height="4" x="24" y="86" fill="#60a5fa" rx="2"/><text x="44" y="116" fill="#b5ab9a" font-family="monospace" font-size="11" font-weight="600">FTR-CB-1001</text><text x="44" y="136" fill="#ebe4d8" font-family="system-ui" font-size="12" font-weight="500">API rate limiting</text><text x="44" y="154" fill="#736858" font-family="system-ui" font-size="11">Implement token bucket</text><rect width="64" height="22" x="44" y="168" fill="#1e2a4f" stroke="#60a5fa" stroke-width="1" rx="6"/><circle cx="58" cy="179" r="4" fill="#60a5fa"/><text x="68" y="183" fill="#60a5fa" font-family="system-ui" font-size="9" font-weight="600">sonnet</text><rect width="72" height="22" x="118" y="168" fill="#5f3a1e" rx="6"/><text x="154" y="183" fill="#fbbf24" font-family="system-ui" font-size="9" font-weight="600" text-anchor="middle">in progress</text><rect width="268" height="116" x="308" y="86" fill="#2a2520" stroke="#3d372e" stroke-width="1.5" rx="10"/><rect width="268" height="4" x="308" y="86" fill="#60a5fa" rx="2"/><text x="328" y="116" fill="#b5ab9a" font-family="monospace" font-size="11" font-weight="600">BUG-CB-1002</text><text x="328" y="136" fill="#ebe4d8" font-family="system-ui" font-size="12" font-weight="500">Fix websocket reconnect</text><text x="328" y="154" fill="#736858" font-family="system-ui" font-size="11">Handle connection drops</text><rect width="64" height="22" x="328" y="168" fill="#1e2a4f" stroke="#60a5fa" stroke-width="1" rx="6"/><circle cx="342" cy="179" r="4" fill="#60a5fa"/><text x="352" y="183" fill="#60a5fa" font-family="system-ui" font-size="9" font-weight="600">sonnet</text><rect width="50" height="22" x="402" y="168" fill="#1e5f2a" rx="6"/><text x="427" y="183" fill="#4ade80" font-family="system-ui" font-size="9" font-weight="600" text-anchor="middle">done</text><rect width="268" height="116" x="592" y="86" fill="#2a2520" stroke="#3d372e" stroke-width="1.5" rx="10"/><rect width="268" height="4" x="592" y="86" fill="#60a5fa" rx="2"/><text x="612" y="116" fill="#b5ab9a" font-family="monospace" font-size="11" font-weight="600">REF-CB-1003</text><text x="612" y="136" fill="#ebe4d8" font-family="system-ui" font-size="12" font-weight="500">Refactor auth module</text><text x="612" y="154" fill="#736858" font-family="system-ui" font-size="11">Extract middleware logic</text><rect width="64" height="22" x="612" y="168" fill="#1e2a4f" stroke="#60a5fa" stroke-width="1" rx="6"/><circle cx="626" cy="179" r="4" fill="#60a5fa"/><text x="636" y="183" fill="#60a5fa" font-family="system-ui" font-size="9" font-weight="600">sonnet</text><rect width="58" height="22" x="686" y="168" fill="#3d372e" rx="6"/><text x="715" y="183" fill="#b5ab9a" font-family="system-ui" font-size="9" font-weight="600" text-anchor="middle">backlog</text><g opacity=".22"><rect width="268" height="72" x="308" y="214" fill="#2a2520" stroke="#3d372e" stroke-width="1.5" rx="10"/><rect width="268" height="4" x="308" y="214" fill="#c084fc" rx="2"/><text x="328" y="242" fill="#b5ab9a" font-family="monospace" font-size="11" font-weight="600">TST-CB-1004</text><text x="328" y="260" fill="#ebe4d8" font-family="system-ui" font-size="12" font-weight="500">E2E test suite</text><rect width="54" height="18" x="328" y="268" fill="#2a1e4a" stroke="#c084fc" stroke-width="1" rx="5"/><text x="355" y="280" fill="#c084fc" font-family="system-ui" font-size="9" font-weight="600" text-anchor="middle">opus</text></g><g transform="translate(408, 240)"><rect width="100" height="24" x="0" y="0" fill="#1a1613" stroke="#3d372e" stroke-width="1" rx="6"/><g transform="translate(10, 4)"><circle cx="8" cy="8" r="5" fill="none" stroke="#736858" stroke-width="1.2"/><circle cx="8" cy="8" r="2" fill="#736858"/><line x1="2" x2="14" y1="14" y2="2" stroke="#736858" stroke-linecap="round" stroke-width="1.5"/></g><text x="32" y="16" fill="#736858" font-family="system-ui" font-size="10">Filtered out</text></g></svg>