<svg xmlns="http://www.w3.org/2000/svg" fill="none" viewBox="0 0 900 320"><defs><linearGradient id="bg" x1="0" x2="900" y1="0" y2="320"><stop offset="0%" stop-color="#1a1613"/><stop offset="100%" stop-color="#1f1b17"/></linearGradient><linearGradient id="accent" x1="0" x2="1" y1="0" y2="1"><stop offset="0%" stop-color="#DA7756"/><stop offset="100%" stop-color="#C45A3C"/></linearGradient></defs><rect width="900" height="320" fill="url(#bg)" rx="16"/><rect width="200" height="280" x="20" y="20" fill="#2a2520" stroke="#3d372e" stroke-width="1" rx="12"/><circle cx="40" cy="44" r="12" fill="url(#accent)"/><text x="40" y="48" fill="#fff" font-size="11" font-weight="bold" text-anchor="middle">1</text><text x="60" y="48" fill="#ebe4d8" font-family="system-ui" font-size="12" font-weight="600">Describe</text><rect width="176" height="50" x="32" y="64" fill="#1f1b17" stroke="#3d372e" stroke-width="1" rx="6"/><text x="42" y="82" fill="#736858" font-family="system-ui" font-size="9">Topic</text><text x="42" y="100" fill="#b5ab9a" font-family="system-ui" font-size="10">Add user auth with JWT...</text><rect width="54" height="24" x="32" y="124" fill="#DA7756" fill-opacity=".15" rx="6"/><text x="59" y="140" fill="#DA7756" font-family="system-ui" font-size="9" font-weight="600" text-anchor="middle">Balanced</text><rect width="50" height="24" x="92" y="124" fill="#3b82f6" fill-opacity=".15" rx="6"/><text x="117" y="140" fill="#60a5fa" font-family="system-ui" font-size="9" font-weight="600" text-anchor="middle">Sonnet</text><rect width="176" height="36" x="32" y="164" fill="url(#accent)" rx="8"/><text x="120" y="186" fill="#fff" font-family="system-ui" font-size="11" font-weight="600" text-anchor="middle">✦ Start Planning</text><path stroke="#DA7756" stroke-dasharray="4 3" stroke-width="2" d="M230 160 L250 160"/><polygon fill="#DA7756" points="250 155 260 160 250 165"/><rect width="200" height="280" x="270" y="20" fill="#2a2520" stroke="#3d372e" stroke-width="1" rx="12"/><circle cx="290" cy="44" r="12" fill="#3b82f6" fill-opacity=".3"/><text x="290" y="48" fill="#60a5fa" font-size="11" font-weight="bold" text-anchor="middle">2</text><text x="310" y="48" fill="#ebe4d8" font-family="system-ui" font-size="12" font-weight="600">Claude Analyzes</text><rect width="176" height="20" x="282" y="64" fill="#1f1b17" rx="4"/><circle cx="300" cy="74" r="4" fill="#10b981"/><text x="310" y="77" fill="#6b7280" font-family="system-ui" font-size="8">Start</text><line x1="334" x2="354" y1="74" y2="74" stroke="#10b981" stroke-opacity=".3" stroke-width="1"/><circle cx="362" cy="74" r="4" fill="#3b82f6"/><text x="372" y="77" fill="#60a5fa" font-family="system-ui" font-size="8">Exploring</text><line x1="410" x2="430" y1="74" y2="74" stroke="#3d372e" stroke-width="1"/><circle cx="438" cy="74" r="4" fill="#3d372e"/><text x="448" y="77" fill="#4b4538" font-family="system-ui" font-size="8">Done</text><rect width="176" height="100" x="282" y="92" fill="#0f0d0b" stroke="#3d372e" stroke-width="1" rx="6"/><text x="292" y="108" fill="#8b5cf6" font-family="monospace" font-size="9">▸ Read → src/auth/</text><text x="292" y="122" fill="#10b981" font-family="monospace" font-size="9">✓ 12 files scanned</text><text x="292" y="136" fill="#8b5cf6" font-family="monospace" font-size="9">▸ Grep → &quot;jwt&quot;</text><text x="292" y="150" fill="#10b981" font-family="monospace" font-size="9">✓ 3 matches</text><text x="292" y="164" fill="#8b5cf6" font-family="monospace" font-size="9">▸ Read → package.json</text><circle cx="294" cy="180" r="3" fill="#f59e0b"><animate attributeName="opacity" dur="1.5s" repeatCount="indefinite" values="1;0.3;1"/></circle><text x="302" y="183" fill="#f59e0b" font-family="system-ui" font-size="9">Analyzing codebase...</text><path stroke="#DA7756" stroke-dasharray="4 3" stroke-width="2" d="M480 160 L500 160"/><polygon fill="#DA7756" points="500 155 510 160 500 165"/><rect width="200" height="280" x="520" y="20" fill="#2a2520" stroke="#DA7756" stroke-opacity=".3" stroke-width="1" rx="12"/><circle cx="540" cy="44" r="12" fill="#f59e0b" fill-opacity=".3"/><text x="540" y="48" fill="#f59e0b" font-size="11" font-weight="bold" text-anchor="middle">3</text><text x="560" y="48" fill="#ebe4d8" font-family="system-ui" font-size="12" font-weight="600">Review Proposals</text><rect width="176" height="38" x="532" y="64" fill="#1f1b17" stroke="#3d372e" stroke-width="1" rx="6"/><rect width="36" height="14" x="540" y="72" fill="#3b82f6" fill-opacity=".15" rx="3"/><text x="558" y="82" fill="#60a5fa" font-family="system-ui" font-size="7" font-weight="600" text-anchor="middle">feature</text><text x="582" y="82" fill="#ebe4d8" font-family="system-ui" font-size="9">JWT auth middleware</text><text x="700" y="82" fill="#ef4444" font-family="system-ui" font-size="10">×</text><rect width="176" height="38" x="532" y="108" fill="#1f1b17" stroke="#3d372e" stroke-width="1" rx="6"/><rect width="36" height="14" x="540" y="116" fill="#3b82f6" fill-opacity=".15" rx="3"/><text x="558" y="126" fill="#60a5fa" font-family="system-ui" font-size="7" font-weight="600" text-anchor="middle">feature</text><text x="582" y="126" fill="#ebe4d8" font-family="system-ui" font-size="9">Login/register endpoints</text><rect width="176" height="38" x="532" y="152" fill="#1f1b17" stroke="#3d372e" stroke-width="1" rx="6"/><rect width="26" height="14" x="540" y="160" fill="#f59e0b" fill-opacity=".15" rx="3"/><text x="553" y="170" fill="#f59e0b" font-family="system-ui" font-size="7" font-weight="600" text-anchor="middle">test</text><text x="572" y="170" fill="#ebe4d8" font-family="system-ui" font-size="9">Auth test suite</text><rect width="80" height="30" x="532" y="210" fill="#2a2520" stroke="#3d372e" stroke-width="1" rx="6"/><text x="572" y="229" fill="#b5ab9a" font-family="system-ui" font-size="10" text-anchor="middle">↻ Revise</text><rect width="88" height="30" x="620" y="210" fill="#10b981" rx="6"/><text x="664" y="229" fill="#fff" font-family="system-ui" font-size="10" font-weight="600" text-anchor="middle">✓ Approve</text><path stroke="#DA7756" stroke-dasharray="4 3" stroke-width="2" d="M730 160 L750 160"/><polygon fill="#DA7756" points="750 155 760 160 750 165"/><rect width="110" height="280" x="770" y="20" fill="#2a2520" stroke="#10b981" stroke-opacity=".3" stroke-width="1" rx="12"/><circle cx="790" cy="44" r="12" fill="#10b981" fill-opacity=".3"/><text x="790" y="48" fill="#10b981" font-size="11" font-weight="bold" text-anchor="middle">4</text><text x="810" y="48" fill="#ebe4d8" font-family="system-ui" font-size="12" font-weight="600">Board</text><rect width="86" height="16" x="782" y="64" fill="#f59e0b" fill-opacity=".1" rx="3"/><text x="825" y="75" fill="#f59e0b" font-family="system-ui" font-size="7" text-anchor="middle">BACKLOG</text><rect width="86" height="20" x="782" y="84" fill="#1f1b17" stroke="#3d372e" stroke-width=".5" rx="4"/><text x="790" y="97" fill="#b5ab9a" font-family="system-ui" font-size="7">JWT middleware</text><rect width="86" height="20" x="782" y="108" fill="#1f1b17" stroke="#3d372e" stroke-width=".5" rx="4"/><text x="790" y="121" fill="#b5ab9a" font-family="system-ui" font-size="7">Login endpoints</text><rect width="86" height="20" x="782" y="132" fill="#1f1b17" stroke="#3d372e" stroke-width=".5" rx="4"/><text x="790" y="145" fill="#b5ab9a" font-family="system-ui" font-size="7">Auth tests</text></svg>