<svg xmlns="http://www.w3.org/2000/svg" fill="none" viewBox="0 0 1000 400"><defs><linearGradient id="tbg" x1="0" x2="1000" y1="0" y2="400"><stop offset="0%" stop-color="#1a1613"/><stop offset="100%" stop-color="#1f1b17"/></linearGradient><linearGradient id="taccent" x1="0" x2="1" y1="0" y2="1"><stop offset="0%" stop-color="#E8926E"/><stop offset="100%" stop-color="#C45A3C"/></linearGradient><clipPath id="tround"><rect width="1000" height="400" rx="16"/></clipPath></defs><rect width="1000" height="400" fill="url(#tbg)" rx="16"/><rect width="1000" height="400" fill="#000" fill-opacity=".5" clip-path="url(#tround)" rx="16"/><rect width="228" height="380" x="20" y="20" fill="#15120f" fill-opacity=".3" clip-path="url(#tround)" rx="8"/><rect width="228" height="380" x="260" y="20" fill="#15120f" fill-opacity=".3" clip-path="url(#tround)" rx="8"/><rect width="228" height="380" x="752" y="20" fill="#15120f" fill-opacity=".3" clip-path="url(#tround)" rx="8"/><rect width="600" height="380" x="200" y="10" fill="#1f1b17" stroke="#3d372e" stroke-width="1" rx="14"/><rect width="598" height="378" x="201" y="11" fill="none" stroke="#DA7756" stroke-opacity=".2" stroke-width=".3" rx="13"/><text x="228" y="38" fill="#ebe4d8" font-family="system-ui" font-size="14" font-weight="700">New Task</text><rect width="28" height="28" x="752" y="18" fill="#2a2520" rx="6"/><line x1="762" x2="774" y1="28" y2="40" stroke="#918678" stroke-linecap="round" stroke-width="1.5"/><line x1="774" x2="762" y1="28" y2="40" stroke="#918678" stroke-linecap="round" stroke-width="1.5"/><rect width="564" height="1" x="218" y="50" fill="#3d372e"/><text x="228" y="72" fill="#918678" font-family="system-ui" font-size="8" font-weight="600">TITLE</text><rect width="564" height="32" x="218" y="78" fill="#15120f" stroke="#3d372e" stroke-width=".5" rx="6"/><text x="230" y="98" fill="#ebe4d8" font-family="system-ui" font-size="10">Add user authentication</text><line x1="362" x2="362" y1="86" y2="102" stroke="#DA7756" stroke-width="1"><animate attributeName="opacity" dur="1.2s" repeatCount="indefinite" values="1;0;1"/></line><text x="228" y="126" fill="#918678" font-family="system-ui" font-size="8" font-weight="600">DESCRIPTION</text><rect width="564" height="50" x="218" y="132" fill="#15120f" stroke="#3d372e" stroke-width=".5" rx="6"/><text x="230" y="150" fill="#ebe4d8" font-family="system-ui" font-size="9">Implement JWT-based auth with refresh tokens.</text><text x="230" y="163" fill="#ebe4d8" font-family="system-ui" font-size="9">Include login, register, and password reset endpoints.</text><text x="230" y="176" fill="#564d40" font-family="system-ui" font-size="8">Supports Markdown formatting</text><text x="228" y="200" fill="#918678" font-family="system-ui" font-size="8" font-weight="600">TYPE</text><rect width="85" height="24" x="218" y="206" fill="#3b82f6" fill-opacity=".15" stroke="#3b82f6" stroke-width="1" rx="5"/><text x="260.5" y="222" fill="#60a5fa" font-family="system-ui" font-size="8" font-weight="700" text-anchor="middle">feature</text><rect width="85" height="24" x="311" y="206" fill="#2a2520" stroke="#3d372e" stroke-width=".5" rx="5"/><text x="353.5" y="222" fill="#918678" font-family="system-ui" font-size="8" font-weight="600" text-anchor="middle">bugfix</text><rect width="85" height="24" x="404" y="206" fill="#2a2520" stroke="#3d372e" stroke-width=".5" rx="5"/><text x="446.5" y="222" fill="#918678" font-family="system-ui" font-size="8" font-weight="600" text-anchor="middle">refactor</text><rect width="85" height="24" x="497" y="206" fill="#2a2520" stroke="#3d372e" stroke-width=".5" rx="5"/><text x="539.5" y="222" fill="#918678" font-family="system-ui" font-size="8" font-weight="600" text-anchor="middle">docs</text><rect width="85" height="24" x="590" y="206" fill="#2a2520" stroke="#3d372e" stroke-width=".5" rx="5"/><text x="632.5" y="222" fill="#918678" font-family="system-ui" font-size="8" font-weight="600" text-anchor="middle">test</text><rect width="85" height="24" x="683" y="206" fill="#2a2520" stroke="#3d372e" stroke-width=".5" rx="5"/><text x="725.5" y="222" fill="#918678" font-family="system-ui" font-size="8" font-weight="600" text-anchor="middle">chore</text><text x="228" y="252" fill="#918678" font-family="system-ui" font-size="8" font-weight="600">MODEL</text><rect width="120" height="24" x="218" y="258" fill="#2a2520" stroke="#3d372e" stroke-width=".5" rx="5"/><circle cx="234" cy="270" r="4" fill="#22c55e" fill-opacity=".3"/><text x="246" y="274" fill="#918678" font-family="system-ui" font-size="8" font-weight="600">Haiku</text><text x="286" y="274" fill="#564d40" font-family="system-ui" font-size="7">Fast</text><rect width="120" height="24" x="346" y="258" fill="#3b82f6" fill-opacity=".12" stroke="#3b82f6" stroke-width="1" rx="5"/><circle cx="362" cy="270" r="4" fill="#3b82f6" fill-opacity=".5"/><text x="374" y="274" fill="#60a5fa" font-family="system-ui" font-size="8" font-weight="700">Sonnet</text><text x="422" y="274" fill="#3b82f6" fill-opacity=".7" font-family="system-ui" font-size="7">Balanced</text><rect width="120" height="24" x="474" y="258" fill="#2a2520" stroke="#3d372e" stroke-width=".5" rx="5"/><circle cx="490" cy="270" r="4" fill="#a78bfa" fill-opacity=".3"/><text x="502" y="274" fill="#918678" font-family="system-ui" font-size="8" font-weight="600">Opus</text><text x="538" y="274" fill="#564d40" font-family="system-ui" font-size="7">Powerful</text><text x="228" y="302" fill="#918678" font-family="system-ui" font-size="8" font-weight="600">PRIORITY</text><rect width="65" height="24" x="218" y="308" fill="#2a2520" stroke="#3d372e" stroke-width=".5" rx="5"/><text x="250.5" y="324" fill="#918678" font-family="system-ui" font-size="8" font-weight="600" text-anchor="middle">None</text><rect width="65" height="24" x="291" y="308" fill="#2a2520" stroke="#3d372e" stroke-width=".5" rx="5"/><text x="323.5" y="324" fill="#918678" font-family="system-ui" font-size="8" font-weight="600" text-anchor="middle">Low</text><rect width="65" height="24" x="364" y="308" fill="#2a2520" stroke="#3d372e" stroke-width=".5" rx="5"/><text x="396.5" y="324" fill="#918678" font-family="system-ui" font-size="8" font-weight="600" text-anchor="middle">Medium</text><rect width="65" height="24" x="437" y="308" fill="#2a2520" stroke="#3d372e" stroke-width=".5" rx="5"/><text x="469.5" y="324" fill="#918678" font-family="system-ui" font-size="8" font-weight="600" text-anchor="middle">High</text><text x="540" y="302" fill="#918678" font-family="system-ui" font-size="8" font-weight="600">EFFORT</text><rect width="65" height="24" x="540" y="308" fill="#2a2520" stroke="#3d372e" stroke-width=".5" rx="5"/><text x="572.5" y="324" fill="#918678" font-family="system-ui" font-size="8" font-weight="600" text-anchor="middle">Low</text><rect width="75" height="24" x="613" y="308" fill="#f59e0b" fill-opacity=".12" stroke="#f59e0b" stroke-width="1" rx="5"/><text x="650.5" y="324" fill="#fbbf24" font-family="system-ui" font-size="8" font-weight="700" text-anchor="middle">Medium</text><rect width="65" height="24" x="696" y="308" fill="#2a2520" stroke="#3d372e" stroke-width=".5" rx="5"/><text x="728.5" y="324" fill="#918678" font-family="system-ui" font-size="8" font-weight="600" text-anchor="middle">High</text><rect width="564" height="30" x="218" y="342" fill="transparent" stroke="#3d372e" stroke-dasharray="6 3" stroke-width="1" rx="6"/><text x="500" y="361" fill="#564d40" font-family="system-ui" font-size="8" text-anchor="middle">Drop files here or click to attach</text><rect width="564" height="1" x="218" y="378" fill="#3d372e"/><rect width="80" height="28" x="610" y="383" fill="#2a2520" stroke="#3d372e" stroke-width=".5" rx="6"/><text x="650" y="401" fill="#918678" font-family="system-ui" font-size="9" font-weight="600" text-anchor="middle">Cancel</text><rect width="100" height="28" x="700" y="383" fill="url(#taccent)" rx="6"/><text x="750" y="401" fill="#fff" font-family="system-ui" font-size="9" font-weight="700" text-anchor="middle">Create Task</text></svg>